<?xml version="1.0" encoding="utf-8"?>
<!-- Generator: Adobe Illustrator 21.0.0, SVG Export Plug-In . SVG Version: 6.00 Build 0)  -->
<svg version="1.1" id="Layer_1" xmlns="http://www.w3.org/2000/svg" xmlns:xlink="http://www.w3.org/1999/xlink" x="0px" y="0px"
	 viewBox="0 0 162 48" style="enable-background:new 0 0 162 48;" xml:space="preserve">
<style type="text/css">
	.st0{fill:#FFFFFF;}
</style>
<path d="M6.6,0h148.9c3.6,0,6.5,3,6.5,6.6v34.9c0,3.6-2.9,6.6-6.5,6.6H6.6C3,48,0,45,0,41.4V6.6C0,3,3,0,6.6,0z"/>
<path class="st0" d="M58.5,26.3H51v2.3h5.4c-0.3,3.2-2.9,4.5-5.4,4.5c-3.2,0-5.9-2.5-5.9-6c0-3.4,2.6-6,5.9-6c2.6,0,4.1,1.6,4.1,1.6
	l1.6-1.6c0,0-2-2.3-5.7-2.3c-4.7,0-8.3,4-8.3,8.2s3.4,8.3,8.5,8.3c4.4,0,7.7-3,7.7-7.5C58.7,26.9,58.5,26.3,58.5,26.3L58.5,26.3z"/>
<path class="st0" d="M65,26.8c1.5,0,3,1.2,3,3.2s-1.4,3.2-3,3.2c-1.7,0-3-1.4-3-3.2C62,28.1,63.3,26.8,65,26.8L65,26.8L65,26.8z
	 M65,24.7c-3.1,0-5.3,2.4-5.3,5.3s2.2,5.4,5.4,5.4c2.9,0,5.3-2.2,5.3-5.3C70.3,26.5,67.5,24.7,65,24.7L65,24.7z"/>
<path class="st0" d="M76.8,26.8c1.5,0,3,1.2,3,3.2s-1.4,3.2-3,3.2c-1.7,0-3-1.4-3-3.2C73.7,28.1,75,26.8,76.8,26.8L76.8,26.8
	L76.8,26.8z M76.7,24.7c-3.1,0-5.3,2.4-5.3,5.3s2.2,5.4,5.4,5.4c2.9,0,5.3-2.2,5.3-5.3C82.1,26.5,79.3,24.7,76.7,24.7L76.7,24.7z"/>
<path class="st0" d="M88.5,26.8c1.4,0,2.8,1.2,2.8,3.2c0,2.1-1.4,3.2-2.9,3.2S85.5,32,85.5,30S87,26.8,88.5,26.8L88.5,26.8
	L88.5,26.8z M88.2,24.7c-2.9,0-5.1,2.5-5.1,5.3c0,3.2,2.6,5.3,5.1,5.3c1.5,0,2.3-0.6,2.9-1.3v1c0,1.8-1.1,2.9-2.8,2.9
	c-1.6,0-2.4-1.2-2.7-1.9l-2,0.9c0.7,1.5,2.2,3.1,4.8,3.1c2.8,0,5-1.8,5-5.5V25h-2.2v0.9C90.4,25.2,89.5,24.7,88.2,24.7L88.2,24.7z"
	/>
<path class="st0" d="M103.8,26.7c1,0,1.7,0.5,2,1.1l-4.8,2C100.8,28.3,102.3,26.7,103.8,26.7L103.8,26.7L103.8,26.7z M103.7,24.7
	c-2.7,0-5,2.1-5,5.3c0,3.3,2.5,5.3,5.2,5.3c2.2,0,3.6-1.2,4.5-2.3l-1.8-1.2c-0.5,0.7-1.3,1.5-2.6,1.5c-1.5,0-2.2-0.8-2.6-1.6l7.1-3
	l-0.4-0.9C107.4,26.1,105.8,24.7,103.7,24.7L103.7,24.7z"/>
<rect x="95.1" y="19.3" class="st0" width="2.3" height="15.7"/>
<rect x="126.5" y="19.3" class="st0" width="2.3" height="15.7"/>
<rect x="114.1" y="19.3" class="st0" width="2.3" height="15.7"/>
<path class="st0" d="M114.1,19.3h5.7c2.7,0,5,2.2,5,5l0,0c0,2.7-2.2,5-5,5h-5.7V19.3L114.1,19.3z M116.4,21.7V27h3.3
	c1.5,0,2.7-1.2,2.7-2.6c0-1.5-1.2-2.6-2.7-2.6L116.4,21.7L116.4,21.7z"/>
<polygon class="st0" points="146.1,40.1 152.9,24.7 150.4,24.7 143.6,40.1 "/>
<polygon class="st0" points="146.9,36.6 141.7,24.7 144.2,24.7 147.8,32.9 146.9,32.9 "/>
<path class="st0" d="M138.4,35h2.3v-5.6c0.4-5.8-7-7.2-9.8-3l1.9,1.3c1.4-2.4,5.3-1.8,5.5,0.7c-1.2-0.3-2.4-0.5-3.6-0.4
	c-1.8,0.2-3.3,1.3-3.6,3.2c-0.1,1,0.1,2.3,0.8,3c1.1,1.2,2.9,1.3,4.4,0.9c0.8-0.2,1.5-0.7,2-1.4L138.4,35L138.4,35z M138.4,30.5
	c-0.3,1.3-1.3,2.2-2.6,2.6c-2.7,0.7-3.4-3.7,0.6-3.1C137.2,30.1,137.8,30.3,138.4,30.5z"/>
<path class="st0" d="M50.3,9.8h-3.5v1h2.4c-0.1,1.4-1.3,2-2.4,2c-1.4,0-2.7-1.1-2.7-2.7s1.2-2.7,2.7-2.7c1.2,0,1.8,0.7,1.8,0.7
	l0.7-0.7c0,0-0.9-1-2.6-1c-2.1,0-3.8,1.8-3.8,3.8c0,1.9,1.6,3.8,3.8,3.8c2,0,3.5-1.4,3.5-3.4C50.4,10.1,50.3,9.8,50.3,9.8L50.3,9.8z
	"/>
<rect x="64.4" y="6.6" class="st0" width="1.1" height="7.1"/>
<path class="st0" d="M58.4,13.8h1.1V7.7h1.7V6.6c-1.5,0-3,0-4.6,0v1.1h1.7L58.4,13.8L58.4,13.8z"/>
<path class="st0" d="M51.5,13.8h4.1v-1.1h-3v-2h2.7v-1h-2.7v-2h3V6.6h-4.1C51.5,9,51.5,11.4,51.5,13.8z"/>
<path class="st0" d="M68.1,13.8h1.1V7.7h1.7V6.6c-1.5,0-3,0-4.6,0v1.1H68v6.1H68.1z"/>
<path class="st0" d="M77.4,12.9c-1.4,0-2.7-1.1-2.7-2.7c0-1.5,1.2-2.7,2.7-2.7s2.7,1.2,2.7,2.7S78.9,12.9,77.4,12.9L77.4,12.9z
	 M77.4,6.4c-2.1,0-3.8,1.8-3.8,3.8c0,1.9,1.5,3.7,3.8,3.8c2.3,0,3.8-1.9,3.8-3.8C81.2,8.2,79.6,6.4,77.4,6.4z"/>
<polygon class="st0" points="82.3,13.8 83.4,13.8 83.4,8.6 86.8,13.8 87.9,13.8 87.9,6.6 86.8,6.6 86.8,11.8 83.4,6.6 82.3,6.6 "/>
<path class="st0" d="M15,39.4c0.1,0,0.2-0.1,0.3-0.1l14.6-8l-3.5-3.5L15,39.4L15,39.4z M30.6,30.9L27,27.3l3.6-3.7l5,2.7
	c1.2,0.7,0.6,1.5,0,1.8L30.6,30.9L30.6,30.9z M29.9,23.3l-14.6-8c-0.2-0.1-0.3-0.1-0.5-0.2l11.7,11.7L29.9,23.3L29.9,23.3z
	 M13.9,15.3l12,12L14,39.4c-0.4-0.2-0.5-0.7-0.5-1.3c0-1.2-0.1-20.1-0.1-21.5C13.3,15.9,13.6,15.5,13.9,15.3z"/>
</svg>
